<svg width="352" height="61" viewBox="0 0 352 61" fill="none" xmlns="http://www.w3.org/2000/svg">
    <path d="M0.0632501 47V2.2H21.9513C24.9806 2.2 27.6473 2.79733 29.9513 3.992C32.2979 5.144 34.1326 6.76533 35.4553 8.856C36.7779 10.9467 37.4393 13.3573 37.4393 16.088C37.4393 18.9467 36.6286 21.464 35.0073 23.64C33.4286 25.816 31.3166 27.4373 28.6713 28.504L38.5913 47H28.2233L19.4553 29.848H9.34325V47H0.0632501ZM9.34325 22.232H21.1193C23.2099 22.232 24.8739 21.6773 26.1113 20.568C27.3913 19.4587 28.0312 18.008 28.0312 16.216C28.0312 14.424 27.3913 12.9733 26.1113 11.864C24.8739 10.7547 23.2099 10.2 21.1193 10.2H9.34325V22.232ZM57.3073 47.64C53.9793 47.64 50.9499 46.872 48.2193 45.336C45.5313 43.8 43.3979 41.7307 41.8193 39.128C40.2406 36.5253 39.4513 33.6027 39.4513 30.36C39.4513 27.1173 40.1979 24.1947 41.6913 21.592C43.2273 18.9893 45.2966 16.92 47.8993 15.384C50.5019 13.848 53.4033 13.08 56.6033 13.08C59.8033 13.08 62.6406 13.8693 65.1153 15.448C67.5899 17.0267 69.5313 19.16 70.9393 21.848C72.3899 24.536 73.1153 27.5867 73.1153 31V33.304H48.4113C48.7953 34.6267 49.4139 35.8213 50.2673 36.888C51.1633 37.9547 52.2513 38.7867 53.5312 39.384C54.8539 39.9813 56.2619 40.28 57.7553 40.28C59.2486 40.28 60.6139 40.0453 61.8513 39.576C63.1313 39.1067 64.2193 38.4453 65.1153 37.592L70.8753 42.84C68.8273 44.504 66.7153 45.72 64.5393 46.488C62.4059 47.256 59.9953 47.64 57.3073 47.64ZM48.2833 27.032H64.4753C64.1766 25.7093 63.6219 24.5573 62.8113 23.576C62.0433 22.552 61.1046 21.7627 59.9953 21.208C58.9286 20.6107 57.7339 20.312 56.4113 20.312C55.0459 20.312 53.8086 20.5893 52.6993 21.144C51.6326 21.6987 50.7153 22.488 49.9473 23.512C49.1793 24.4933 48.6246 25.6667 48.2833 27.032ZM78.4873 60.056V13.656H87.1273V16.408C89.8579 14.2747 93.0153 13.208 96.5993 13.208C99.7566 13.208 102.615 13.976 105.175 15.512C107.735 17.048 109.762 19.1173 111.255 21.72C112.791 24.28 113.559 27.16 113.559 30.36C113.559 33.56 112.791 36.4613 111.255 39.064C109.719 41.624 107.65 43.672 105.047 45.208C102.445 46.7013 99.5433 47.448 96.3433 47.448C94.6793 47.448 93.0793 47.2347 91.5433 46.808C90.0073 46.3387 88.5779 45.6773 87.2553 44.824V60.056H78.4873ZM95.1913 40.024C97.0259 40.024 98.6686 39.5973 100.119 38.744C101.613 37.8907 102.786 36.7387 103.639 35.288C104.493 33.8373 104.919 32.1947 104.919 30.36C104.919 28.5253 104.493 26.8827 103.639 25.432C102.786 23.9387 101.613 22.7867 100.119 21.976C98.6686 21.1227 97.0259 20.696 95.1913 20.696C93.5699 20.696 92.0766 20.9733 90.7113 21.528C89.3886 22.04 88.2366 22.8293 87.2553 23.896V36.888C88.1939 37.8267 89.3459 38.5947 90.7113 39.192C92.1193 39.7467 93.6126 40.024 95.1913 40.024ZM135.181 47.64C131.853 47.64 128.845 46.872 126.157 45.336C123.469 43.8 121.335 41.7307 119.757 39.128C118.178 36.5253 117.389 33.6027 117.389 30.36C117.389 27.1173 118.157 24.1947 119.693 21.592C121.271 18.9467 123.405 16.856 126.093 15.32C128.823 13.784 131.853 13.016 135.181 13.016C138.509 13.016 141.517 13.784 144.205 15.32C146.935 16.856 149.069 18.9467 150.605 21.592C152.183 24.1947 152.973 27.1173 152.973 30.36C152.973 33.6027 152.183 36.5253 150.605 39.128C149.069 41.7307 146.957 43.8 144.269 45.336C141.581 46.872 138.551 47.64 135.181 47.64ZM135.181 40.024C136.93 40.024 138.487 39.5973 139.853 38.744C141.261 37.8907 142.37 36.7387 143.181 35.288C144.034 33.7947 144.461 32.152 144.461 30.36C144.461 28.5253 144.034 26.8827 143.181 25.432C142.37 23.9813 141.261 22.8293 139.853 21.976C138.487 21.08 136.93 20.632 135.181 20.632C133.474 20.632 131.917 21.08 130.509 21.976C129.101 22.8293 127.991 23.9813 127.181 25.432C126.37 26.8827 125.965 28.5253 125.965 30.36C125.965 32.152 126.37 33.7947 127.181 35.288C127.991 36.7387 129.101 37.8907 130.509 38.744C131.917 39.5973 133.474 40.024 135.181 40.024ZM158.362 47V13.656H167.13V17.368C168.197 15.9173 169.477 14.808 170.97 14.04C172.464 13.272 174.149 12.888 176.026 12.888C177.648 12.9307 178.864 13.1867 179.674 13.656V21.336C179.034 21.0373 178.33 20.824 177.562 20.696C176.794 20.5253 176.005 20.44 175.194 20.44C173.488 20.44 171.93 20.8667 170.522 21.72C169.114 22.5733 167.984 23.7893 167.13 25.368V47H158.362ZM200.295 47.512C196.583 47.512 193.767 46.68 191.847 45.016C189.97 43.3093 189.031 40.8347 189.031 37.592V20.952H182.183V13.656H189.031V5.144L197.799 3.16V13.656H207.335V20.952H197.799V35.8C197.799 37.336 198.141 38.4453 198.823 39.128C199.506 39.768 200.701 40.088 202.407 40.088C203.261 40.088 204.029 40.0453 204.711 39.96C205.437 39.832 206.226 39.6187 207.079 39.32V46.552C206.183 46.8507 205.074 47.0853 203.751 47.256C202.429 47.4267 201.277 47.512 200.295 47.512ZM212.188 47V2.2H246.812V10.264H221.468V20.824H238.3V28.632H221.468V47H212.188ZM251.55 47V2.2L260.318 0.727997V47H251.55ZM283.431 47.64C280.103 47.64 277.095 46.872 274.407 45.336C271.719 43.8 269.585 41.7307 268.007 39.128C266.428 36.5253 265.639 33.6027 265.639 30.36C265.639 27.1173 266.407 24.1947 267.943 21.592C269.521 18.9467 271.655 16.856 274.343 15.32C277.073 13.784 280.103 13.016 283.431 13.016C286.759 13.016 289.767 13.784 292.455 15.32C295.185 16.856 297.319 18.9467 298.855 21.592C300.433 24.1947 301.223 27.1173 301.223 30.36C301.223 33.6027 300.433 36.5253 298.855 39.128C297.319 41.7307 295.207 43.8 292.519 45.336C289.831 46.872 286.801 47.64 283.431 47.64ZM283.431 40.024C285.18 40.024 286.737 39.5973 288.103 38.744C289.511 37.8907 290.62 36.7387 291.431 35.288C292.284 33.7947 292.711 32.152 292.711 30.36C292.711 28.5253 292.284 26.8827 291.431 25.432C290.62 23.9813 289.511 22.8293 288.103 21.976C286.737 21.08 285.18 20.632 283.431 20.632C281.724 20.632 280.167 21.08 278.759 21.976C277.351 22.8293 276.241 23.9813 275.431 25.432C274.62 26.8827 274.215 28.5253 274.215 30.36C274.215 32.152 274.62 33.7947 275.431 35.288C276.241 36.7387 277.351 37.8907 278.759 38.744C280.167 39.5973 281.724 40.024 283.431 40.024ZM312.323 47L303.171 13.656H311.491L316.995 35.16L323.651 13.656H331.011L337.603 35.224L343.107 13.656H351.299L342.083 47H333.699L327.235 25.688L320.771 47H312.323Z" fill="white"/>
</svg>
