<svg width="456" height="456" viewBox="0 0 456 456" fill="none" xmlns="http://www.w3.org/2000/svg">
    <path d="M228 181.847C233.044 190.035 238.364 197.531 243.373 204.544C256.016 222.3 266 236.325 266 252.182C266 269.455 249.038 290.182 228 290.182C206.962 290.182 190 269.455 190 252.182C190 236.325 199.984 222.3 212.627 204.544C217.602 197.635 222.991 190.035 228 181.847ZM228 152C210.727 193.455 176.182 217.636 176.182 252.182C176.182 277.504 200.018 304 228 304C255.982 304 279.818 277.504 279.818 252.182C279.818 217.636 245.273 193.455 228 152ZM237.431 262.545C233.015 262.556 228.762 260.875 225.547 257.847L221.091 253.46C220.45 252.858 219.604 252.522 218.725 252.522C217.845 252.522 216.999 252.858 216.358 253.46L212.178 257.433C210.85 258.697 209.073 259.382 207.24 259.337C205.406 259.291 203.666 258.519 202.402 257.191C201.137 255.862 200.453 254.086 200.498 252.253C200.543 250.419 201.315 248.679 202.644 247.415L206.824 243.442C210.032 240.4 214.286 238.704 218.707 238.704C223.129 238.704 227.382 240.4 230.591 243.442L234.909 247.829C235.55 248.431 236.396 248.767 237.275 248.767C238.155 248.767 239.001 248.431 239.642 247.829L243.822 243.856C244.48 243.23 245.254 242.74 246.102 242.413C246.949 242.087 247.852 241.93 248.76 241.953C249.668 241.975 250.562 242.176 251.393 242.544C252.223 242.912 252.972 243.44 253.598 244.098C254.224 244.756 254.715 245.531 255.041 246.378C255.368 247.225 255.524 248.129 255.502 249.036C255.48 249.944 255.279 250.839 254.91 251.669C254.542 252.499 254.014 253.249 253.356 253.875L249.176 257.847C245.996 260.842 241.799 262.521 237.431 262.545Z" fill="white" stroke="white" stroke-width="0.000853333"/>
</svg>